<svg xmlns="http://www.w3.org/2000/svg" viewBox="0 0 64 64">
  <defs>
    <linearGradient id="bgGrad" x1="0%" y1="0%" x2="100%" y2="100%">
      <stop offset="0%" stop-color="#165A42" />
      <stop offset="100%" stop-color="#0F402F" />
    </linearGradient>
  </defs>
  <rect width="64" height="64" rx="16" fill="url(#bgGrad)"/>
  <path d="M32 14C22 14 16 20 16 28c0 10 10 18 16 22 6-4 16-12 16-22 0-8-6-14-16-14zm0 24c-4.4 0-8-3.6-8-8s3.6-8 8-8 8 3.6 8 8-3.6 8-8 8z" fill="#FF6F43"/>
  <circle cx="38" cy="24" r="3" fill="#165A42"/>
  <path d="M32 44c-3 0-5.5-1.5-7-3.8 4 1.5 10 1.5 14 0-1.5 2.3-4 3.8-7 3.8z" fill="#FAF7F2"/>
</svg>
