<svg xmlns="http://www.w3.org/2000/svg" viewBox="0 0 64 64">
  <rect width="64" height="64" rx="14" fill="#165A42"/>
  <path d="M32 10C24 10 18 15 18 22c0 9 6 17 13.5 19.6.3.1.5-.1.5-.4v-4.4c0-.6-.2-1.2-.6-1.6l-3-3c-.6-.6-.6-1.6 0-2.2l1.2-1.2c.6-.6 1.6-.6 2.2 0l3 3c.4.4 1 .6 1.6.6h.4c.6 0 1.2-.2 1.6-.6l3-3c.6-.6 1.6-.6 2.2 0l1.2 1.2c.6.6.6 1.6 0 2.2l-3 3c-.4.4-.6 1-.6 1.6v4.4c0 .6.4 1 1 .8C40 39 46 31 46 22c0-10-8-12-14-12zm-2 10c0-1.2.8-2 2-2s2 .8 2 2v8c0 1.2-.8 2-2 2s-2-.8-2-2v-8z" fill="#FF6F43"/>
  <circle cx="32" cy="52" r="4" fill="#FAF7F2" opacity="0.7"/>
</svg>
